<mxfile host="Electron" agent="Mozilla/5.0 (X11; Linux x86_64) AppleWebKit/537.36 (KHTML, like Gecko) draw.io/26.0.16 Chrome/132.0.6834.196 Electron/34.2.0 Safari/537.36" version="26.0.16">
  <diagram name="Page-1" id="f3jBQr8TLTDDAwhKRLuk">
    <mxGraphModel dx="1687" dy="968" grid="1" gridSize="10" guides="1" tooltips="1" connect="1" arrows="1" fold="1" page="1" pageScale="1" pageWidth="827" pageHeight="1169" math="0" shadow="0">
      <root>
        <mxCell id="0" />
        <mxCell id="1" parent="0" />
        <mxCell id="g57zYea4O15oFF7myR46-9" value="&lt;font style=&quot;font-size: 8px;&quot;&gt;Switch On&lt;/font&gt;" style="rounded=0;whiteSpace=wrap;html=1;fillColor=#dae8fc;strokeColor=#6c8ebf;" vertex="1" parent="1">
          <mxGeometry x="480" y="500" width="40" height="20" as="geometry" />
        </mxCell>
        <mxCell id="g57zYea4O15oFF7myR46-103" value="&lt;font style=&quot;font-size: 8px;&quot;&gt;Switch On&lt;/font&gt;" style="rounded=0;whiteSpace=wrap;html=1;fillColor=#dae8fc;strokeColor=#6c8ebf;" vertex="1" parent="1">
          <mxGeometry x="520" y="540" width="40" height="20" as="geometry" />
        </mxCell>
        <mxCell id="g57zYea4O15oFF7myR46-104" value="&lt;font style=&quot;font-size: 8px;&quot;&gt;Switch On&lt;/font&gt;" style="rounded=0;whiteSpace=wrap;html=1;fillColor=#dae8fc;strokeColor=#6c8ebf;" vertex="1" parent="1">
          <mxGeometry x="560" y="579.5" width="40" height="20" as="geometry" />
        </mxCell>
        <mxCell id="g57zYea4O15oFF7myR46-105" value="&lt;font style=&quot;font-size: 8px;&quot;&gt;Switch On&lt;/font&gt;" style="rounded=0;whiteSpace=wrap;html=1;fillColor=#dae8fc;strokeColor=#6c8ebf;" vertex="1" parent="1">
          <mxGeometry x="600" y="620" width="40" height="20" as="geometry" />
        </mxCell>
        <mxCell id="g57zYea4O15oFF7myR46-107" value="&lt;font style=&quot;font-size: 8px;&quot;&gt;Switch Off&lt;/font&gt;" style="rounded=0;whiteSpace=wrap;html=1;fillColor=#dae8fc;strokeColor=#6c8ebf;" vertex="1" parent="1">
          <mxGeometry x="640" y="500" width="40" height="20" as="geometry" />
        </mxCell>
        <mxCell id="g57zYea4O15oFF7myR46-108" value="&lt;font style=&quot;font-size: 8px;&quot;&gt;Switch Off&lt;/font&gt;" style="rounded=0;whiteSpace=wrap;html=1;fillColor=#dae8fc;strokeColor=#6c8ebf;" vertex="1" parent="1">
          <mxGeometry x="680" y="540" width="40" height="20" as="geometry" />
        </mxCell>
        <mxCell id="g57zYea4O15oFF7myR46-109" value="&lt;font style=&quot;font-size: 8px;&quot;&gt;Switch Off&lt;/font&gt;" style="rounded=0;whiteSpace=wrap;html=1;fillColor=#dae8fc;strokeColor=#6c8ebf;" vertex="1" parent="1">
          <mxGeometry x="720" y="579.5" width="40" height="20" as="geometry" />
        </mxCell>
        <mxCell id="g57zYea4O15oFF7myR46-110" value="&lt;font style=&quot;font-size: 8px;&quot;&gt;Switch Off&lt;/font&gt;" style="rounded=0;whiteSpace=wrap;html=1;fillColor=#dae8fc;strokeColor=#6c8ebf;" vertex="1" parent="1">
          <mxGeometry x="760" y="620" width="40" height="20" as="geometry" />
        </mxCell>
        <mxCell id="g57zYea4O15oFF7myR46-111" value="&lt;font style=&quot;font-size: 8px;&quot;&gt;Switch On&lt;/font&gt;" style="rounded=0;whiteSpace=wrap;html=1;fillColor=#dae8fc;strokeColor=#6c8ebf;" vertex="1" parent="1">
          <mxGeometry x="800" y="500" width="40" height="20" as="geometry" />
        </mxCell>
        <mxCell id="g57zYea4O15oFF7myR46-112" value="&lt;font style=&quot;font-size: 8px;&quot;&gt;Switch On&lt;/font&gt;" style="rounded=0;whiteSpace=wrap;html=1;fillColor=#dae8fc;strokeColor=#6c8ebf;" vertex="1" parent="1">
          <mxGeometry x="840" y="540" width="40" height="20" as="geometry" />
        </mxCell>
        <mxCell id="g57zYea4O15oFF7myR46-113" value="&lt;font style=&quot;font-size: 8px;&quot;&gt;Switch On&lt;/font&gt;" style="rounded=0;whiteSpace=wrap;html=1;fillColor=#dae8fc;strokeColor=#6c8ebf;" vertex="1" parent="1">
          <mxGeometry x="880" y="579.5" width="40" height="20" as="geometry" />
        </mxCell>
        <mxCell id="g57zYea4O15oFF7myR46-116" value="&lt;font style=&quot;font-size: 8px;&quot;&gt;Switch On&lt;/font&gt;" style="rounded=0;whiteSpace=wrap;html=1;fillColor=#dae8fc;strokeColor=#6c8ebf;" vertex="1" parent="1">
          <mxGeometry x="920" y="620" width="40" height="20" as="geometry" />
        </mxCell>
        <mxCell id="g57zYea4O15oFF7myR46-34" value="Led On" style="rounded=0;whiteSpace=wrap;html=1;fillColor=#fff2cc;strokeColor=#d6b656;" vertex="1" parent="1">
          <mxGeometry x="1000" y="500" width="80" height="20" as="geometry" />
        </mxCell>
        <mxCell id="g57zYea4O15oFF7myR46-35" value="Led On" style="rounded=0;whiteSpace=wrap;html=1;fillColor=#fff2cc;strokeColor=#d6b656;" vertex="1" parent="1">
          <mxGeometry x="1020" y="540" width="80" height="20" as="geometry" />
        </mxCell>
        <mxCell id="g57zYea4O15oFF7myR46-36" value="Led On" style="rounded=0;whiteSpace=wrap;html=1;fillColor=#fff2cc;strokeColor=#d6b656;" vertex="1" parent="1">
          <mxGeometry x="1040" y="579.5" width="80" height="20" as="geometry" />
        </mxCell>
        <mxCell id="g57zYea4O15oFF7myR46-37" value="Led On" style="rounded=0;whiteSpace=wrap;html=1;fillColor=#fff2cc;strokeColor=#d6b656;" vertex="1" parent="1">
          <mxGeometry x="1060" y="620" width="80" height="20" as="geometry" />
        </mxCell>
        <mxCell id="g57zYea4O15oFF7myR46-38" value="Led On" style="rounded=0;whiteSpace=wrap;html=1;fillColor=#fff2cc;strokeColor=#d6b656;" vertex="1" parent="1">
          <mxGeometry x="1161" y="500" width="80" height="20" as="geometry" />
        </mxCell>
        <mxCell id="g57zYea4O15oFF7myR46-39" value="Led On" style="rounded=0;whiteSpace=wrap;html=1;fillColor=#fff2cc;strokeColor=#d6b656;" vertex="1" parent="1">
          <mxGeometry x="1180" y="540" width="80" height="20" as="geometry" />
        </mxCell>
        <mxCell id="g57zYea4O15oFF7myR46-40" value="Led On" style="rounded=0;whiteSpace=wrap;html=1;fillColor=#fff2cc;strokeColor=#d6b656;" vertex="1" parent="1">
          <mxGeometry x="1200" y="579.5" width="80" height="20" as="geometry" />
        </mxCell>
        <mxCell id="g57zYea4O15oFF7myR46-41" value="Led On" style="rounded=0;whiteSpace=wrap;html=1;fillColor=#fff2cc;strokeColor=#d6b656;" vertex="1" parent="1">
          <mxGeometry x="1220" y="620" width="80" height="20" as="geometry" />
        </mxCell>
        <mxCell id="g57zYea4O15oFF7myR46-1" value="" style="endArrow=classic;html=1;rounded=0;strokeWidth=5;" edge="1" parent="1">
          <mxGeometry width="50" height="50" relative="1" as="geometry">
            <mxPoint x="440" y="720" as="sourcePoint" />
            <mxPoint x="440" y="360" as="targetPoint" />
          </mxGeometry>
        </mxCell>
        <mxCell id="g57zYea4O15oFF7myR46-2" value="" style="endArrow=classic;html=1;rounded=0;strokeWidth=5;" edge="1" parent="1">
          <mxGeometry width="50" height="50" relative="1" as="geometry">
            <mxPoint x="438" y="720" as="sourcePoint" />
            <mxPoint x="1420" y="720" as="targetPoint" />
          </mxGeometry>
        </mxCell>
        <mxCell id="g57zYea4O15oFF7myR46-5" value="" style="endArrow=none;html=1;rounded=0;strokeWidth=2;strokeColor=#0000FF;" edge="1" parent="1">
          <mxGeometry width="50" height="50" relative="1" as="geometry">
            <mxPoint x="440" y="640" as="sourcePoint" />
            <mxPoint x="1400" y="640" as="targetPoint" />
          </mxGeometry>
        </mxCell>
        <mxCell id="g57zYea4O15oFF7myR46-6" value="Task main" style="text;html=1;align=center;verticalAlign=middle;whiteSpace=wrap;rounded=0;" vertex="1" parent="1">
          <mxGeometry x="370" y="420" width="60" height="30" as="geometry" />
        </mxCell>
        <mxCell id="g57zYea4O15oFF7myR46-8" value="" style="endArrow=none;html=1;rounded=0;strokeWidth=2;strokeColor=#0000FF;" edge="1" parent="1">
          <mxGeometry width="50" height="50" relative="1" as="geometry">
            <mxPoint x="440" y="560" as="sourcePoint" />
            <mxPoint x="1400" y="560" as="targetPoint" />
          </mxGeometry>
        </mxCell>
        <mxCell id="g57zYea4O15oFF7myR46-13" value="" style="endArrow=none;html=1;rounded=0;strokeWidth=2;strokeColor=#0000FF;" edge="1" parent="1">
          <mxGeometry width="50" height="50" relative="1" as="geometry">
            <mxPoint x="440" y="599.5" as="sourcePoint" />
            <mxPoint x="1400" y="600" as="targetPoint" />
          </mxGeometry>
        </mxCell>
        <mxCell id="g57zYea4O15oFF7myR46-10" value="" style="endArrow=none;html=1;rounded=0;strokeWidth=2;strokeColor=#0000FF;" edge="1" parent="1">
          <mxGeometry width="50" height="50" relative="1" as="geometry">
            <mxPoint x="440" y="520" as="sourcePoint" />
            <mxPoint x="1400" y="520" as="targetPoint" />
          </mxGeometry>
        </mxCell>
        <mxCell id="g57zYea4O15oFF7myR46-15" value="" style="rounded=0;whiteSpace=wrap;html=1;fillColor=#dae8fc;strokeColor=#6c8ebf;" vertex="1" parent="1">
          <mxGeometry x="450" y="420" width="30" height="20" as="geometry" />
        </mxCell>
        <mxCell id="g57zYea4O15oFF7myR46-16" value="" style="endArrow=none;html=1;rounded=0;strokeWidth=2;strokeColor=#0000FF;" edge="1" parent="1">
          <mxGeometry width="50" height="50" relative="1" as="geometry">
            <mxPoint x="440" y="440" as="sourcePoint" />
            <mxPoint x="1400" y="440" as="targetPoint" />
          </mxGeometry>
        </mxCell>
        <mxCell id="g57zYea4O15oFF7myR46-21" value="Task 1&lt;div&gt;(GPIO 4)&lt;/div&gt;" style="text;html=1;align=center;verticalAlign=middle;whiteSpace=wrap;rounded=0;" vertex="1" parent="1">
          <mxGeometry x="370" y="500" width="60" height="30" as="geometry" />
        </mxCell>
        <mxCell id="g57zYea4O15oFF7myR46-22" value="Task 2&lt;div&gt;(GPIO 2)&lt;/div&gt;" style="text;html=1;align=center;verticalAlign=middle;whiteSpace=wrap;rounded=0;" vertex="1" parent="1">
          <mxGeometry x="370" y="540" width="60" height="30" as="geometry" />
        </mxCell>
        <mxCell id="g57zYea4O15oFF7myR46-23" value="Task 3&lt;div&gt;(GPIO 13)&lt;/div&gt;" style="text;html=1;align=center;verticalAlign=middle;whiteSpace=wrap;rounded=0;" vertex="1" parent="1">
          <mxGeometry x="370" y="579.5" width="60" height="30" as="geometry" />
        </mxCell>
        <mxCell id="g57zYea4O15oFF7myR46-24" value="Task 4&lt;div&gt;(GPIO 12)&lt;/div&gt;" style="text;html=1;align=center;verticalAlign=middle;whiteSpace=wrap;rounded=0;" vertex="1" parent="1">
          <mxGeometry x="370" y="620" width="60" height="30" as="geometry" />
        </mxCell>
        <mxCell id="g57zYea4O15oFF7myR46-31" value="" style="endArrow=none;html=1;rounded=0;" edge="1" parent="1">
          <mxGeometry width="50" height="50" relative="1" as="geometry">
            <mxPoint x="480" y="730" as="sourcePoint" />
            <mxPoint x="480" y="710" as="targetPoint" />
          </mxGeometry>
        </mxCell>
        <mxCell id="g57zYea4O15oFF7myR46-44" value="" style="endArrow=none;html=1;rounded=0;" edge="1" parent="1">
          <mxGeometry width="50" height="50" relative="1" as="geometry">
            <mxPoint x="1080" y="730" as="sourcePoint" />
            <mxPoint x="1080" y="710" as="targetPoint" />
          </mxGeometry>
        </mxCell>
        <mxCell id="g57zYea4O15oFF7myR46-45" value="" style="endArrow=none;html=1;rounded=0;" edge="1" parent="1">
          <mxGeometry width="50" height="50" relative="1" as="geometry">
            <mxPoint x="1100" y="730" as="sourcePoint" />
            <mxPoint x="1100" y="710" as="targetPoint" />
          </mxGeometry>
        </mxCell>
        <mxCell id="g57zYea4O15oFF7myR46-46" value="" style="endArrow=none;html=1;rounded=0;" edge="1" parent="1">
          <mxGeometry width="50" height="50" relative="1" as="geometry">
            <mxPoint x="1120" y="730" as="sourcePoint" />
            <mxPoint x="1120" y="710" as="targetPoint" />
          </mxGeometry>
        </mxCell>
        <mxCell id="g57zYea4O15oFF7myR46-47" value="" style="endArrow=none;html=1;rounded=0;" edge="1" parent="1">
          <mxGeometry width="50" height="50" relative="1" as="geometry">
            <mxPoint x="1140" y="730" as="sourcePoint" />
            <mxPoint x="1139.43" y="710" as="targetPoint" />
          </mxGeometry>
        </mxCell>
        <mxCell id="g57zYea4O15oFF7myR46-48" value="" style="endArrow=none;html=1;rounded=0;" edge="1" parent="1">
          <mxGeometry width="50" height="50" relative="1" as="geometry">
            <mxPoint x="1160" y="730" as="sourcePoint" />
            <mxPoint x="1159.71" y="710" as="targetPoint" />
          </mxGeometry>
        </mxCell>
        <mxCell id="g57zYea4O15oFF7myR46-49" value="" style="endArrow=none;html=1;rounded=0;" edge="1" parent="1">
          <mxGeometry width="50" height="50" relative="1" as="geometry">
            <mxPoint x="1180" y="730" as="sourcePoint" />
            <mxPoint x="1179.71" y="710" as="targetPoint" />
          </mxGeometry>
        </mxCell>
        <mxCell id="g57zYea4O15oFF7myR46-50" value="" style="endArrow=none;html=1;rounded=0;" edge="1" parent="1">
          <mxGeometry width="50" height="50" relative="1" as="geometry">
            <mxPoint x="1200" y="730" as="sourcePoint" />
            <mxPoint x="1200" y="710" as="targetPoint" />
          </mxGeometry>
        </mxCell>
        <mxCell id="g57zYea4O15oFF7myR46-51" value="" style="endArrow=none;html=1;rounded=0;" edge="1" parent="1">
          <mxGeometry width="50" height="50" relative="1" as="geometry">
            <mxPoint x="1220" y="730" as="sourcePoint" />
            <mxPoint x="1220" y="710" as="targetPoint" />
          </mxGeometry>
        </mxCell>
        <mxCell id="g57zYea4O15oFF7myR46-52" value="" style="endArrow=none;html=1;rounded=0;" edge="1" parent="1">
          <mxGeometry width="50" height="50" relative="1" as="geometry">
            <mxPoint x="1240" y="730" as="sourcePoint" />
            <mxPoint x="1240" y="710" as="targetPoint" />
          </mxGeometry>
        </mxCell>
        <mxCell id="g57zYea4O15oFF7myR46-53" value="" style="endArrow=none;html=1;rounded=0;" edge="1" parent="1">
          <mxGeometry width="50" height="50" relative="1" as="geometry">
            <mxPoint x="1260" y="730" as="sourcePoint" />
            <mxPoint x="1259.43" y="710" as="targetPoint" />
          </mxGeometry>
        </mxCell>
        <mxCell id="g57zYea4O15oFF7myR46-54" value="" style="endArrow=none;html=1;rounded=0;" edge="1" parent="1">
          <mxGeometry width="50" height="50" relative="1" as="geometry">
            <mxPoint x="1280" y="730" as="sourcePoint" />
            <mxPoint x="1279.71" y="710" as="targetPoint" />
          </mxGeometry>
        </mxCell>
        <mxCell id="g57zYea4O15oFF7myR46-55" value="" style="endArrow=none;html=1;rounded=0;" edge="1" parent="1">
          <mxGeometry width="50" height="50" relative="1" as="geometry">
            <mxPoint x="1300" y="730" as="sourcePoint" />
            <mxPoint x="1299.71" y="710" as="targetPoint" />
          </mxGeometry>
        </mxCell>
        <mxCell id="g57zYea4O15oFF7myR46-56" value="" style="endArrow=none;html=1;rounded=0;" edge="1" parent="1">
          <mxGeometry width="50" height="50" relative="1" as="geometry">
            <mxPoint x="1321" y="730" as="sourcePoint" />
            <mxPoint x="1321" y="710" as="targetPoint" />
          </mxGeometry>
        </mxCell>
        <mxCell id="g57zYea4O15oFF7myR46-57" value="" style="endArrow=none;html=1;rounded=0;" edge="1" parent="1">
          <mxGeometry width="50" height="50" relative="1" as="geometry">
            <mxPoint x="1341" y="730" as="sourcePoint" />
            <mxPoint x="1341" y="710" as="targetPoint" />
          </mxGeometry>
        </mxCell>
        <mxCell id="g57zYea4O15oFF7myR46-58" value="" style="endArrow=none;html=1;rounded=0;" edge="1" parent="1">
          <mxGeometry width="50" height="50" relative="1" as="geometry">
            <mxPoint x="1361" y="730" as="sourcePoint" />
            <mxPoint x="1361" y="710" as="targetPoint" />
          </mxGeometry>
        </mxCell>
        <mxCell id="g57zYea4O15oFF7myR46-59" value="" style="endArrow=none;html=1;rounded=0;" edge="1" parent="1">
          <mxGeometry width="50" height="50" relative="1" as="geometry">
            <mxPoint x="1380" y="730" as="sourcePoint" />
            <mxPoint x="1380.43" y="710" as="targetPoint" />
          </mxGeometry>
        </mxCell>
        <mxCell id="g57zYea4O15oFF7myR46-61" value="" style="endArrow=none;html=1;rounded=0;" edge="1" parent="1">
          <mxGeometry width="50" height="50" relative="1" as="geometry">
            <mxPoint x="1000" y="760" as="sourcePoint" />
            <mxPoint x="1000" y="350" as="targetPoint" />
          </mxGeometry>
        </mxCell>
        <mxCell id="g57zYea4O15oFF7myR46-62" value="" style="endArrow=none;html=1;rounded=0;" edge="1" parent="1">
          <mxGeometry width="50" height="50" relative="1" as="geometry">
            <mxPoint x="1020" y="730" as="sourcePoint" />
            <mxPoint x="1020" y="710" as="targetPoint" />
          </mxGeometry>
        </mxCell>
        <mxCell id="g57zYea4O15oFF7myR46-63" value="" style="endArrow=none;html=1;rounded=0;" edge="1" parent="1">
          <mxGeometry width="50" height="50" relative="1" as="geometry">
            <mxPoint x="1040" y="730" as="sourcePoint" />
            <mxPoint x="1040" y="710" as="targetPoint" />
          </mxGeometry>
        </mxCell>
        <mxCell id="g57zYea4O15oFF7myR46-64" value="" style="endArrow=none;html=1;rounded=0;" edge="1" parent="1">
          <mxGeometry width="50" height="50" relative="1" as="geometry">
            <mxPoint x="1060" y="730" as="sourcePoint" />
            <mxPoint x="1060" y="710" as="targetPoint" />
          </mxGeometry>
        </mxCell>
        <mxCell id="g57zYea4O15oFF7myR46-117" value="" style="image;points=[];aspect=fixed;html=1;align=center;shadow=0;dashed=0;image=img/lib/allied_telesis/computer_and_terminals/Personal_Computer.svg;" vertex="1" parent="1">
          <mxGeometry x="910" y="358.2" width="45.6" height="61.800000000000004" as="geometry" />
        </mxCell>
        <mxCell id="g57zYea4O15oFF7myR46-118" value="" style="endArrow=classic;html=1;rounded=0;exitX=1;exitY=0;exitDx=0;exitDy=0;" edge="1" parent="1" source="g57zYea4O15oFF7myR46-9" target="g57zYea4O15oFF7myR46-117">
          <mxGeometry width="50" height="50" relative="1" as="geometry">
            <mxPoint x="710" y="480" as="sourcePoint" />
            <mxPoint x="760" y="430" as="targetPoint" />
          </mxGeometry>
        </mxCell>
        <mxCell id="g57zYea4O15oFF7myR46-119" value="" style="endArrow=classic;html=1;rounded=0;exitX=1;exitY=0;exitDx=0;exitDy=0;" edge="1" parent="1" source="g57zYea4O15oFF7myR46-107" target="g57zYea4O15oFF7myR46-117">
          <mxGeometry width="50" height="50" relative="1" as="geometry">
            <mxPoint x="530" y="510" as="sourcePoint" />
            <mxPoint x="860" y="380" as="targetPoint" />
          </mxGeometry>
        </mxCell>
        <mxCell id="g57zYea4O15oFF7myR46-120" value="&lt;div&gt;&lt;font style=&quot;font-size: 9px;&quot;&gt;&amp;nbsp; &amp;nbsp; &amp;nbsp; &amp;nbsp; ESP_LOGI(&quot;Blink&quot;, &quot;Blink off led %d&quot;, gpio);&lt;/font&gt;&lt;/div&gt;" style="text;html=1;align=center;verticalAlign=middle;whiteSpace=wrap;rounded=0;rotation=336;" vertex="1" parent="1">
          <mxGeometry x="630" y="437" width="280" height="30" as="geometry" />
        </mxCell>
        <mxCell id="g57zYea4O15oFF7myR46-121" value="&lt;div&gt;&lt;font style=&quot;font-size: 9px;&quot;&gt;&amp;nbsp; &amp;nbsp; &amp;nbsp; &amp;nbsp; ESP_LOGI(&quot;Blink&quot;, &quot;Blink on led %d&quot;, gpio);&lt;/font&gt;&lt;/div&gt;" style="text;html=1;align=center;verticalAlign=middle;whiteSpace=wrap;rounded=0;rotation=-15;opacity=0;" vertex="1" parent="1">
          <mxGeometry x="550" y="430" width="280" height="30" as="geometry" />
        </mxCell>
        <mxCell id="g57zYea4O15oFF7myR46-123" value="" style="rounded=0;whiteSpace=wrap;html=1;fillColor=#dae8fc;strokeColor=#6c8ebf;" vertex="1" parent="1">
          <mxGeometry x="520" y="420" width="10" height="20" as="geometry" />
        </mxCell>
        <mxCell id="g57zYea4O15oFF7myR46-124" value="" style="rounded=0;whiteSpace=wrap;html=1;fillColor=#dae8fc;strokeColor=#6c8ebf;" vertex="1" parent="1">
          <mxGeometry x="560" y="420" width="10" height="20" as="geometry" />
        </mxCell>
        <mxCell id="g57zYea4O15oFF7myR46-125" value="" style="rounded=0;whiteSpace=wrap;html=1;fillColor=#dae8fc;strokeColor=#6c8ebf;" vertex="1" parent="1">
          <mxGeometry x="600" y="420" width="10" height="20" as="geometry" />
        </mxCell>
        <mxCell id="g57zYea4O15oFF7myR46-126" value="" style="endArrow=classic;html=1;rounded=0;entryX=1;entryY=0;entryDx=0;entryDy=0;" edge="1" parent="1" target="g57zYea4O15oFF7myR46-15">
          <mxGeometry width="50" height="50" relative="1" as="geometry">
            <mxPoint x="520" y="360" as="sourcePoint" />
            <mxPoint x="610" y="308.2" as="targetPoint" />
          </mxGeometry>
        </mxCell>
        <mxCell id="g57zYea4O15oFF7myR46-127" value="" style="endArrow=classic;html=1;rounded=0;entryX=0.5;entryY=0;entryDx=0;entryDy=0;" edge="1" parent="1" target="g57zYea4O15oFF7myR46-123">
          <mxGeometry width="50" height="50" relative="1" as="geometry">
            <mxPoint x="520" y="360" as="sourcePoint" />
            <mxPoint x="490" y="430" as="targetPoint" />
          </mxGeometry>
        </mxCell>
        <mxCell id="g57zYea4O15oFF7myR46-128" value="" style="endArrow=classic;html=1;rounded=0;entryX=0.25;entryY=0;entryDx=0;entryDy=0;" edge="1" parent="1" target="g57zYea4O15oFF7myR46-124">
          <mxGeometry width="50" height="50" relative="1" as="geometry">
            <mxPoint x="520" y="360" as="sourcePoint" />
            <mxPoint x="535" y="430" as="targetPoint" />
          </mxGeometry>
        </mxCell>
        <mxCell id="g57zYea4O15oFF7myR46-129" value="" style="endArrow=classic;html=1;rounded=0;entryX=0.5;entryY=0;entryDx=0;entryDy=0;" edge="1" parent="1" target="g57zYea4O15oFF7myR46-125">
          <mxGeometry width="50" height="50" relative="1" as="geometry">
            <mxPoint x="520" y="360" as="sourcePoint" />
            <mxPoint x="573" y="430" as="targetPoint" />
          </mxGeometry>
        </mxCell>
        <mxCell id="g57zYea4O15oFF7myR46-130" value="Start the other tasks" style="text;html=1;align=center;verticalAlign=middle;whiteSpace=wrap;rounded=0;" vertex="1" parent="1">
          <mxGeometry x="465" y="337" width="120" height="30" as="geometry" />
        </mxCell>
        <mxCell id="g57zYea4O15oFF7myR46-131" value="" style="endArrow=none;html=1;rounded=0;" edge="1" parent="1">
          <mxGeometry width="50" height="50" relative="1" as="geometry">
            <mxPoint x="520" y="730" as="sourcePoint" />
            <mxPoint x="520" y="710" as="targetPoint" />
          </mxGeometry>
        </mxCell>
        <mxCell id="g57zYea4O15oFF7myR46-133" value="" style="endArrow=none;html=1;rounded=0;" edge="1" parent="1">
          <mxGeometry width="50" height="50" relative="1" as="geometry">
            <mxPoint x="560" y="730" as="sourcePoint" />
            <mxPoint x="560" y="710" as="targetPoint" />
          </mxGeometry>
        </mxCell>
        <mxCell id="g57zYea4O15oFF7myR46-135" value="" style="endArrow=none;html=1;rounded=0;" edge="1" parent="1">
          <mxGeometry width="50" height="50" relative="1" as="geometry">
            <mxPoint x="600" y="730" as="sourcePoint" />
            <mxPoint x="599.71" y="710" as="targetPoint" />
          </mxGeometry>
        </mxCell>
        <mxCell id="g57zYea4O15oFF7myR46-138" value="" style="endArrow=none;html=1;rounded=0;" edge="1" parent="1">
          <mxGeometry width="50" height="50" relative="1" as="geometry">
            <mxPoint x="480" y="730" as="sourcePoint" />
            <mxPoint x="480" y="710" as="targetPoint" />
          </mxGeometry>
        </mxCell>
        <mxCell id="g57zYea4O15oFF7myR46-141" value="" style="endArrow=none;html=1;rounded=0;" edge="1" parent="1">
          <mxGeometry width="50" height="50" relative="1" as="geometry">
            <mxPoint x="720" y="730" as="sourcePoint" />
            <mxPoint x="720" y="710" as="targetPoint" />
          </mxGeometry>
        </mxCell>
        <mxCell id="g57zYea4O15oFF7myR46-143" value="" style="endArrow=none;html=1;rounded=0;" edge="1" parent="1">
          <mxGeometry width="50" height="50" relative="1" as="geometry">
            <mxPoint x="760" y="730" as="sourcePoint" />
            <mxPoint x="759.4300000000001" y="710" as="targetPoint" />
          </mxGeometry>
        </mxCell>
        <mxCell id="g57zYea4O15oFF7myR46-145" value="" style="endArrow=none;html=1;rounded=0;" edge="1" parent="1">
          <mxGeometry width="50" height="50" relative="1" as="geometry">
            <mxPoint x="800" y="730" as="sourcePoint" />
            <mxPoint x="799.71" y="710" as="targetPoint" />
          </mxGeometry>
        </mxCell>
        <mxCell id="g57zYea4O15oFF7myR46-146" value="" style="endArrow=none;html=1;rounded=0;" edge="1" parent="1">
          <mxGeometry width="50" height="50" relative="1" as="geometry">
            <mxPoint x="640" y="730" as="sourcePoint" />
            <mxPoint x="640" y="710" as="targetPoint" />
          </mxGeometry>
        </mxCell>
        <mxCell id="g57zYea4O15oFF7myR46-148" value="" style="endArrow=none;html=1;rounded=0;" edge="1" parent="1">
          <mxGeometry width="50" height="50" relative="1" as="geometry">
            <mxPoint x="680" y="730" as="sourcePoint" />
            <mxPoint x="680" y="710" as="targetPoint" />
          </mxGeometry>
        </mxCell>
        <mxCell id="g57zYea4O15oFF7myR46-149" value="" style="endArrow=none;html=1;rounded=0;" edge="1" parent="1">
          <mxGeometry width="50" height="50" relative="1" as="geometry">
            <mxPoint x="880" y="730" as="sourcePoint" />
            <mxPoint x="880" y="710" as="targetPoint" />
          </mxGeometry>
        </mxCell>
        <mxCell id="g57zYea4O15oFF7myR46-151" value="" style="endArrow=none;html=1;rounded=0;" edge="1" parent="1">
          <mxGeometry width="50" height="50" relative="1" as="geometry">
            <mxPoint x="920" y="730" as="sourcePoint" />
            <mxPoint x="920" y="710" as="targetPoint" />
          </mxGeometry>
        </mxCell>
        <mxCell id="g57zYea4O15oFF7myR46-153" value="" style="endArrow=none;html=1;rounded=0;" edge="1" parent="1">
          <mxGeometry width="50" height="50" relative="1" as="geometry">
            <mxPoint x="960" y="730" as="sourcePoint" />
            <mxPoint x="959.71" y="710" as="targetPoint" />
          </mxGeometry>
        </mxCell>
        <mxCell id="g57zYea4O15oFF7myR46-156" value="" style="endArrow=none;html=1;rounded=0;" edge="1" parent="1">
          <mxGeometry width="50" height="50" relative="1" as="geometry">
            <mxPoint x="840" y="730" as="sourcePoint" />
            <mxPoint x="840" y="710" as="targetPoint" />
          </mxGeometry>
        </mxCell>
        <mxCell id="g57zYea4O15oFF7myR46-158" value="Task Scheduling" style="rounded=0;whiteSpace=wrap;html=1;fillColor=#f8cecc;strokeColor=#b85450;" vertex="1" parent="1">
          <mxGeometry x="660" y="334" width="120" height="33" as="geometry" />
        </mxCell>
        <mxCell id="g57zYea4O15oFF7myR46-159" value="Leds" style="rounded=0;whiteSpace=wrap;html=1;fillColor=#f8cecc;strokeColor=#b85450;" vertex="1" parent="1">
          <mxGeometry x="1161" y="337" width="120" height="33" as="geometry" />
        </mxCell>
        <mxCell id="g57zYea4O15oFF7myR46-160" value="&lt;font style=&quot;font-size: 8px;&quot;&gt;250ms&lt;/font&gt;" style="text;html=1;align=center;verticalAlign=middle;whiteSpace=wrap;rounded=0;" vertex="1" parent="1">
          <mxGeometry x="465" y="725" width="30" height="20" as="geometry" />
        </mxCell>
        <mxCell id="g57zYea4O15oFF7myR46-161" value="&lt;font style=&quot;font-size: 8px;&quot;&gt;750ms&lt;/font&gt;" style="text;html=1;align=center;verticalAlign=middle;whiteSpace=wrap;rounded=0;" vertex="1" parent="1">
          <mxGeometry x="550" y="725" width="30" height="20" as="geometry" />
        </mxCell>
        <mxCell id="g57zYea4O15oFF7myR46-162" value="&lt;font style=&quot;font-size: 8px;&quot;&gt;2000ms&lt;/font&gt;" style="text;html=1;align=center;verticalAlign=middle;whiteSpace=wrap;rounded=0;" vertex="1" parent="1">
          <mxGeometry x="750" y="725" width="30" height="20" as="geometry" />
        </mxCell>
        <mxCell id="g57zYea4O15oFF7myR46-163" value="&lt;font style=&quot;font-size: 8px;&quot;&gt;...&lt;/font&gt;" style="text;html=1;align=center;verticalAlign=middle;whiteSpace=wrap;rounded=0;" vertex="1" parent="1">
          <mxGeometry x="650" y="725" width="30" height="20" as="geometry" />
        </mxCell>
        <mxCell id="g57zYea4O15oFF7myR46-164" value="&lt;font style=&quot;font-size: 8px;&quot;&gt;...&lt;/font&gt;" style="text;html=1;align=center;verticalAlign=middle;whiteSpace=wrap;rounded=0;" vertex="1" parent="1">
          <mxGeometry x="860" y="725" width="30" height="20" as="geometry" />
        </mxCell>
        <mxCell id="g57zYea4O15oFF7myR46-165" value="&lt;font style=&quot;font-size: 8px;&quot;&gt;250ms&lt;/font&gt;" style="text;html=1;align=center;verticalAlign=middle;whiteSpace=wrap;rounded=0;" vertex="1" parent="1">
          <mxGeometry x="1006" y="725" width="30" height="20" as="geometry" />
        </mxCell>
        <mxCell id="g57zYea4O15oFF7myR46-166" value="&lt;font style=&quot;font-size: 8px;&quot;&gt;1000ms&lt;/font&gt;" style="text;html=1;align=center;verticalAlign=middle;whiteSpace=wrap;rounded=0;" vertex="1" parent="1">
          <mxGeometry x="1065" y="725" width="30" height="20" as="geometry" />
        </mxCell>
        <mxCell id="g57zYea4O15oFF7myR46-167" value="&lt;span style=&quot;font-size: 8px;&quot;&gt;...&lt;/span&gt;" style="text;html=1;align=center;verticalAlign=middle;whiteSpace=wrap;rounded=0;" vertex="1" parent="1">
          <mxGeometry x="1150" y="725" width="30" height="20" as="geometry" />
        </mxCell>
        <mxCell id="g57zYea4O15oFF7myR46-168" value="&lt;span style=&quot;font-size: 8px;&quot;&gt;...&lt;/span&gt;" style="text;html=1;align=center;verticalAlign=middle;whiteSpace=wrap;rounded=0;" vertex="1" parent="1">
          <mxGeometry x="1260" y="725" width="30" height="20" as="geometry" />
        </mxCell>
        <mxCell id="g57zYea4O15oFF7myR46-169" value="&lt;font style=&quot;font-size: 8px;&quot;&gt;3250ms&lt;/font&gt;" style="text;html=1;align=center;verticalAlign=middle;whiteSpace=wrap;rounded=0;" vertex="1" parent="1">
          <mxGeometry x="950" y="725" width="30" height="20" as="geometry" />
        </mxCell>
        <mxCell id="g57zYea4O15oFF7myR46-170" value="&lt;span style=&quot;font-size: 8px;&quot;&gt;4000ms&lt;/span&gt;" style="text;html=1;align=center;verticalAlign=middle;whiteSpace=wrap;rounded=0;" vertex="1" parent="1">
          <mxGeometry x="1310" y="730" width="30" height="15" as="geometry" />
        </mxCell>
      </root>
    </mxGraphModel>
  </diagram>
</mxfile>
